# xmcd
#
# Track frame offsets: 
#        150
#        17122
#        44052
#        68354
#        82939
#        124217
#        138696
#        166231
#        201322
#        232430
#        246569
#        259546
#        275874
#        287129
#        298152
#        314372
#        326195
#        339609
#
# Disc length: 4771 seconds
#
# Revision: 0
# Processed by: cddbd v1.5.2PL0 Copyright (c) Steve Scherf et al.
# Submitted via: ExactAudioCopy v0.95b3
#
DISCID=2d12a112
DTITLE=Phil Spector  - Rare Masters CD 1  FLAC
DYEAR=1900
DGENRE=
TTITLE0=The Ronettes - Be My Baby takes 14-17
TTITLE1=The Ronettes - Be My Baby takes 18-20
TTITLE2=The Ronettes - Be My Baby takes 21-24
TTITLE3=The Ronettes - Be My Baby take 25
TTITLE4=The Ronettes - Be My Baby takes 26-33
TTITLE5=The Ronettes - Be My Baby take 33, with vocal
TTITLE6=The Ronettes - Baby, I Love You takes 1-3
TTITLE7=The Ronettes - Baby, I Love You takes 4-7
TTITLE8=The Ronettes - Baby, I Love You takes 8-10
TTITLE9=The Ronettes - Baby, I Love You takes 11 and 12
TTITLE10=The Ronettes - Baby, I Love You vocal track
TTITLE11=The Ronettes - Walking in the Rain take 1
TTITLE12=The Ronettes - Walking in the Rain take 2
TTITLE13=The Ronettes - Walking in the Rain take 3
TTITLE14=The Ronettes - Walking in the Rain take 4
TTITLE15=The Ronettes - Walking in the Rain take 5
TTITLE16=The Ronettes - Walking in the Rain take 6
TTITLE17=The Ronettes - Walking in the Rain take 7
EXTD=
EXTT0=
EXTT1=
EXTT2=
EXTT3=
EXTT4=
EXTT5=
EXTT6=
EXTT7=
EXTT8=
EXTT9=
EXTT10=
EXTT11=
EXTT12=
EXTT13=
EXTT14=
EXTT15=
EXTT16=
EXTT17=
PLAYORDER=
